<svg width="26" height="26" viewBox="0 0 26 26" fill="none" xmlns="http://www.w3.org/2000/svg">
<path d="M13 0C10.4288 0 7.91543 0.762437 5.77759 2.1909C3.63975 3.61935 1.97351 5.64968 0.989572 8.02512C0.0056327 10.4006 -0.251811 13.0144 0.249797 15.5362C0.751405 18.0579 1.98953 20.3743 3.80762 22.1924C5.6257 24.0105 7.94208 25.2486 10.4638 25.7502C12.9856 26.2518 15.5995 25.9944 17.9749 25.0104C20.3503 24.0265 22.3807 22.3603 23.8091 20.2224C25.2376 18.0846 26 15.5712 26 13C25.996 9.5534 24.6251 6.24911 22.188 3.812C19.7509 1.37488 16.4466 0.00396997 13 0ZM23.9525 12H18.9738C18.75 7.43625 16.9925 4.20875 15.5513 2.3C17.7891 2.83739 19.8026 4.06171 21.3095 5.80127C22.8164 7.54083 23.741 9.70839 23.9538 12H23.9525ZM9.02876 14H16.9713C16.6825 19.2013 14.1925 22.3887 13 23.625C11.8063 22.3875 9.31751 19.2 9.02876 14ZM9.02876 12C9.31751 6.79875 11.8075 3.61125 13 2.375C14.1938 3.61625 16.6825 6.80375 16.9713 12H9.02876ZM10.4488 2.3C9.00751 4.20875 7.25001 7.43625 7.02626 12H2.04626C2.259 9.70839 3.18364 7.54083 4.69051 5.80127C6.19738 4.06171 8.21091 2.83739 10.4488 2.3ZM2.04626 14H7.02626C7.25376 18.5637 9.00751 21.7913 10.4488 23.7C8.21091 23.1626 6.19738 21.9383 4.69051 20.1987C3.18364 18.4592 2.259 16.2916 2.04626 14ZM15.5463 23.7C16.9875 21.7913 18.7413 18.5637 18.9688 14H23.9488C23.7363 16.2909 22.8124 18.458 21.3065 20.1975C19.8006 21.937 17.7882 23.1617 15.5513 23.7H15.5463Z" fill="white"/>
</svg>
