<svg width="25" height="28" viewBox="0 0 25 28" fill="none" xmlns="http://www.w3.org/2000/svg">
<path d="M21.0633 19.4338C22.3278 18.3715 23.338 17.0392 24.0195 15.5348C24.7009 14.0304 25.0362 12.3924 25.0008 10.7413C24.8758 5.02751 20.2995 0.316259 14.5958 0.0162587C13.1241 -0.0638431 11.6514 0.152613 10.265 0.652773C8.8786 1.15293 7.60687 1.92659 6.52532 2.92781C5.44377 3.92903 4.57444 5.13739 3.96898 6.48112C3.36352 7.82485 3.03426 9.27655 3.00077 10.75L0.194515 16.1475C0.183265 16.17 0.172015 16.1925 0.162015 16.215C-0.0391725 16.6839 -0.0535116 17.212 0.121934 17.6912C0.297379 18.1704 0.649339 18.5644 1.10577 18.7925L1.13702 18.8063L4.00076 20.1175V24C4.00076 24.5304 4.21148 25.0391 4.58655 25.4142C4.96162 25.7893 5.47033 26 6.00076 26H12.0008C12.266 26 12.5203 25.8947 12.7079 25.7071C12.8954 25.5196 13.0008 25.2652 13.0008 25C13.0008 24.7348 12.8954 24.4804 12.7079 24.2929C12.5203 24.1054 12.266 24 12.0008 24H6.00076V19.4763C6.00091 19.2846 5.94596 19.0969 5.84247 18.9356C5.73898 18.7742 5.5913 18.646 5.41702 18.5663L2.00077 17L4.88451 11.4575C4.95968 11.3166 4.99957 11.1597 5.00076 11C5.00047 8.96043 5.69296 6.98124 6.96474 5.38674C8.23653 3.79224 10.0122 2.677 12.0008 2.22376V4.17251C11.3336 4.4084 10.7712 4.87258 10.4131 5.48299C10.0551 6.0934 9.9243 6.81075 10.044 7.50824C10.1636 8.20574 10.526 8.83847 11.0671 9.29461C11.6082 9.75076 12.2931 10.0009 13.0008 10.0009C13.7085 10.0009 14.3934 9.75076 14.9344 9.29461C15.4755 8.83847 15.8379 8.20574 15.9576 7.50824C16.0772 6.81075 15.9465 6.0934 15.5884 5.48299C15.2303 4.87258 14.668 4.4084 14.0008 4.17251V2.00001C14.1633 2.00001 14.3258 2.00001 14.4883 2.01251C16.2616 2.11409 17.9656 2.73627 19.3872 3.80124C20.8088 4.86621 21.8849 6.32669 22.4808 8.00001H20.0008C19.8541 7.99995 19.7091 8.03218 19.5763 8.09439C19.4434 8.1566 19.3259 8.24729 19.232 8.36001L16.0433 12.1875C15.3782 11.9397 14.647 11.9351 13.9788 12.1744C13.3107 12.4138 12.7488 12.8817 12.3924 13.4954C12.036 14.1092 11.9081 14.8292 12.0314 15.5281C12.1546 16.227 12.5211 16.8598 13.066 17.3146C13.6108 17.7694 14.2989 18.0168 15.0086 18.0132C15.7183 18.0095 16.4039 17.755 16.944 17.2947C17.4842 16.8343 17.8441 16.1977 17.9602 15.4976C18.0762 14.7974 17.941 14.0788 17.5783 13.4688L20.4695 10H22.9433C22.9733 10.26 22.9916 10.5225 22.9983 10.7875C23.0294 12.2198 22.7195 13.639 22.0939 14.9278C21.4684 16.2167 20.5453 17.3383 19.4008 18.2C19.2597 18.3057 19.1492 18.4469 19.0802 18.6091C19.0113 18.7713 18.9865 18.9489 19.0083 19.1238L20.0083 27.1238C20.0387 27.3653 20.1562 27.5874 20.3386 27.7485C20.5211 27.9095 20.7561 27.9985 20.9995 27.9988C21.0413 27.9988 21.083 27.9962 21.1245 27.9913C21.2549 27.975 21.3807 27.9333 21.4949 27.8684C21.6092 27.8035 21.7095 27.7168 21.7901 27.6131C21.8708 27.5094 21.9303 27.3909 21.9651 27.2643C22 27.1376 22.0095 27.0053 21.9933 26.875L21.0633 19.4338ZM13.0008 8.00001C12.803 8.00001 12.6096 7.94136 12.4452 7.83148C12.2807 7.7216 12.1526 7.56542 12.0769 7.38269C12.0012 7.19997 11.9814 6.9989 12.02 6.80492C12.0586 6.61094 12.1538 6.43275 12.2937 6.2929C12.4335 6.15305 12.6117 6.05781 12.8057 6.01922C12.9997 5.98064 13.2007 6.00044 13.3834 6.07613C13.5662 6.15182 13.7224 6.27999 13.8322 6.44444C13.9421 6.60889 14.0008 6.80223 14.0008 7.00001C14.0008 7.26523 13.8954 7.51958 13.7079 7.70712C13.5203 7.89465 13.266 8.00001 13.0008 8.00001ZM15.0008 16C14.803 16 14.6096 15.9414 14.4452 15.8315C14.2807 15.7216 14.1526 15.5654 14.0769 15.3827C14.0012 15.2 13.9814 14.9989 14.02 14.8049C14.0586 14.6109 14.1538 14.4328 14.2937 14.2929C14.4335 14.153 14.6117 14.0578 14.8057 14.0192C14.9997 13.9806 15.2007 14.0004 15.3834 14.0761C15.5662 14.1518 15.7224 14.28 15.8322 14.4444C15.9421 14.6089 16.0008 14.8022 16.0008 15C16.0008 15.2652 15.8954 15.5196 15.7079 15.7071C15.5203 15.8947 15.266 16 15.0008 16Z" fill="white"/>
</svg>
