<svg width="40" height="41" viewBox="0 0 40 41" fill="none" xmlns="http://www.w3.org/2000/svg">
<rect width="40" height="40" transform="translate(0 0.97168)" fill="white"/>
<path d="M32.1209 4.30518H7.87846C6.67293 4.30518 5.51678 4.78407 4.66434 5.63651C3.8119 6.48895 3.33301 7.6451 3.33301 8.85063L3.33301 33.0931C3.33301 34.2986 3.8119 35.4547 4.66434 36.3072C5.51678 37.1596 6.67293 37.6385 7.87846 37.6385H32.1209C33.3264 37.6385 34.4826 37.1596 35.335 36.3072C36.1875 35.4547 36.6663 34.2986 36.6663 33.0931V8.85063C36.6663 7.6451 36.1875 6.48895 35.335 5.63651C34.4826 4.78407 33.3264 4.30518 32.1209 4.30518ZM14.6966 30.684C14.6969 30.7764 14.6789 30.868 14.6437 30.9534C14.6085 31.0389 14.5568 31.1166 14.4915 31.182C14.4262 31.2475 14.3487 31.2994 14.2633 31.3348C14.178 31.3703 14.0864 31.3885 13.994 31.3885H10.9997C10.9071 31.3888 10.8154 31.3707 10.7298 31.3354C10.6442 31.3001 10.5664 31.2482 10.5009 31.1827C10.4355 31.1172 10.3836 31.0395 10.3483 30.9539C10.3129 30.8683 10.2949 30.7766 10.2951 30.684V18.1309C10.2951 17.9441 10.3694 17.7649 10.5015 17.6327C10.6336 17.5006 10.8128 17.4264 10.9997 17.4264H13.994C14.1805 17.4269 14.3592 17.5013 14.491 17.6334C14.6227 17.7655 14.6966 17.9444 14.6966 18.1309V30.684ZM12.4959 16.237C11.934 16.237 11.3847 16.0704 10.9176 15.7582C10.4504 15.4461 10.0863 15.0024 9.87123 14.4833C9.65621 13.9641 9.59995 13.3929 9.70957 12.8419C9.81918 12.2908 10.0898 11.7846 10.4871 11.3873C10.8844 10.99 11.3906 10.7194 11.9417 10.6098C12.4927 10.5001 13.0639 10.5564 13.5831 10.7714C14.1022 10.9864 14.5459 11.3506 14.858 11.8178C15.1702 12.2849 15.3368 12.8342 15.3368 13.3961C15.3368 14.1495 15.0375 14.8721 14.5047 15.4049C13.9719 15.9377 13.2493 16.237 12.4959 16.237ZM30.3482 30.7332C30.3484 30.8183 30.3318 30.9027 30.2994 30.9814C30.2669 31.0601 30.2192 31.1316 30.159 31.1918C30.0988 31.252 30.0273 31.2997 29.9486 31.3321C29.8699 31.3646 29.7856 31.3812 29.7004 31.3809H26.4807C26.3956 31.3812 26.3113 31.3646 26.2326 31.3321C26.1539 31.2997 26.0824 31.252 26.0222 31.1918C25.962 31.1316 25.9143 31.0601 25.8818 30.9814C25.8493 30.9027 25.8328 30.8183 25.833 30.7332V24.8525C25.833 23.9737 26.0906 21.004 23.5357 21.004C21.5565 21.004 21.1531 23.0362 21.0735 23.9491V30.7408C21.0736 30.9109 21.0066 31.0743 20.8872 31.1955C20.7678 31.3167 20.6054 31.386 20.4353 31.3885H17.3254C17.2405 31.3885 17.1563 31.3717 17.0778 31.3392C16.9994 31.3066 16.9281 31.2589 16.8681 31.1987C16.8081 31.1385 16.7606 31.0671 16.7282 30.9885C16.6959 30.9099 16.6794 30.8258 16.6796 30.7408V18.076C16.6794 17.991 16.6959 17.9069 16.7282 17.8283C16.7606 17.7497 16.8081 17.6783 16.8681 17.6181C16.9281 17.5579 16.9994 17.5102 17.0778 17.4776C17.1563 17.445 17.2405 17.4283 17.3254 17.4283H20.4353C20.6071 17.4283 20.7718 17.4965 20.8933 17.618C21.0148 17.7395 21.083 17.9042 21.083 18.076V19.1707C21.8179 18.0665 22.9069 17.2181 25.2307 17.2181C30.3785 17.2181 30.3444 22.0249 30.3444 24.665L30.3482 30.7332Z" fill="#112639"/>
</svg>
