<svg width="1037" height="955" viewBox="0 0 1037 955" fill="none" xmlns="http://www.w3.org/2000/svg">
<path d="M461.318 775.546C299.314 775.546 167.227 648.572 160.704 489.549C160.704 489.286 160.704 489.048 160.704 488.785C160.656 487.52 160.608 486.232 160.584 484.967C160.512 482.39 160.488 479.837 160.488 477.259C160.488 474.682 160.512 472.129 160.584 469.552C160.608 468.287 160.656 466.998 160.704 465.733C160.704 465.471 160.704 465.209 160.704 464.97C167.227 305.923 299.314 178.972 461.318 178.972C529.046 178.972 591.552 201.165 641.83 238.606L646.042 230.254L656.103 210.328L728.164 67.4367C656.007 24.6027 571.575 0 481.367 0C404.492 0 331.83 17.8734 267.351 49.635C111.581 126.426 3.70652 284.423 0.120342 467.762C0.0962734 469.003 0.072205 470.244 0.0481367 471.484C0 473.417 0 475.326 0 477.259C0 479.192 0 481.101 0.0481367 483.034C0.072205 484.275 0.0962734 485.516 0.120342 486.757C5.19876 685.535 169.345 845.131 371.062 845.131C449.982 845.131 523.149 820.695 583.296 779.03C620.217 753.497 652.204 721.449 677.596 684.581C622.937 740.659 546.231 775.546 461.318 775.546Z" fill="url(#paint0_linear_1029_1791)"/>
<path d="M956.067 556.794C917.894 782.514 719.884 954.518 481.367 954.518C404.469 954.518 331.758 936.645 267.279 904.836C297.485 911.326 328.846 914.739 361.025 914.739C577.351 914.739 757.286 760.441 795.026 556.794H956.067Z" fill="url(#paint1_linear_1029_1791)"/>
<path d="M1036.33 397.724H561.586L481.367 556.818H956.115L1036.33 397.724Z" fill="url(#paint2_linear_1029_1791)"/>
<defs>
<linearGradient id="paint0_linear_1029_1791" x1="216.028" y1="-153.969" x2="216.028" y2="845.131" gradientUnits="userSpaceOnUse">
<stop stop-color="#3696FF"/>
<stop offset="1" stop-color="#0039D5"/>
</linearGradient>
<linearGradient id="paint1_linear_1029_1791" x1="611.673" y1="494.189" x2="611.666" y2="1017.12" gradientUnits="userSpaceOnUse">
<stop stop-color="#FFAF8B"/>
<stop offset="1" stop-color="#FF5E15"/>
</linearGradient>
<linearGradient id="paint2_linear_1029_1791" x1="751.821" y1="406.253" x2="751.821" y2="549.739" gradientUnits="userSpaceOnUse">
<stop stop-color="#FF9666"/>
<stop offset="1" stop-color="#FF5E15"/>
</linearGradient>
</defs>
</svg>
