<svg width="3862" height="921" viewBox="0 0 3862 921" fill="none" xmlns="http://www.w3.org/2000/svg">
<path d="M328.056 666.998C212.851 666.998 118.92 576.702 114.281 463.617C114.281 463.43 114.281 463.26 114.281 463.074C114.247 462.174 114.213 461.258 114.196 460.358C114.145 458.526 114.127 456.71 114.127 454.877C114.127 453.044 114.145 451.229 114.196 449.396C114.213 448.497 114.247 447.58 114.281 446.681C114.281 446.494 114.281 446.307 114.281 446.138C118.92 333.035 212.851 242.757 328.056 242.757C376.22 242.757 420.669 258.538 456.424 285.164L459.419 279.224L466.574 265.055L517.818 163.441C466.505 132.98 406.463 115.484 342.314 115.484C287.646 115.484 235.974 128.195 190.121 150.781C79.3483 205.389 2.63582 317.745 0.0855784 448.123C0.0684628 449.006 0.0513471 449.888 0.0342314 450.771C0 452.145 0 453.503 0 454.877C0 456.252 0 457.609 0.0342314 458.984C0.0513471 459.866 0.0684628 460.749 0.0855784 461.631C3.69699 602.988 120.426 716.481 263.873 716.481C319.995 716.481 372.027 699.104 414.799 669.475C441.054 651.318 463.801 628.528 481.858 602.309C442.988 642.188 388.441 666.998 328.056 666.998Z" fill="url(#paint0_linear_1029_1703)"/>
<path d="M679.887 511.437C652.741 671.953 511.931 794.27 342.314 794.27C287.629 794.27 235.923 781.56 190.07 758.939C211.55 763.555 233.852 765.982 256.736 765.982C410.571 765.982 538.528 656.256 565.366 511.437H679.887Z" fill="url(#paint1_linear_1029_1703)"/>
<path d="M736.967 398.317H399.36L342.314 511.454H679.921L736.967 398.317Z" fill="url(#paint2_linear_1029_1703)"/>
<path d="M1219.64 376.582C1209.89 358.705 1196.48 345.093 1179.42 335.748C1162.35 326.403 1142.44 321.73 1119.69 321.73C1094.5 321.73 1072.15 327.419 1052.65 338.795C1033.15 350.172 1017.91 366.424 1006.94 387.552C995.969 408.68 990.484 433.059 990.484 460.688C990.484 489.13 995.969 513.914 1006.94 535.042C1018.32 556.17 1033.96 572.423 1053.87 583.799C1073.78 595.176 1096.94 600.864 1123.35 600.864C1155.85 600.864 1182.46 592.332 1203.19 575.267C1223.91 557.796 1237.52 533.62 1244.02 502.741H1097.75V437.528H1328.13V511.883C1322.44 541.543 1310.25 568.969 1291.56 594.16C1272.87 619.351 1248.69 639.667 1219.03 655.107C1189.78 670.14 1156.87 677.657 1120.3 677.657C1079.26 677.657 1042.09 668.515 1008.77 650.231C975.857 631.541 949.853 605.74 930.757 572.829C912.066 539.918 902.721 502.538 902.721 460.688C902.721 418.838 912.066 381.458 930.757 348.547C949.853 315.229 975.857 289.429 1008.77 271.145C1042.09 252.455 1079.06 243.11 1119.69 243.11C1167.63 243.11 1209.28 254.893 1244.63 278.459C1279.98 301.618 1304.36 334.326 1317.77 376.582H1219.64ZM1547.28 679.485C1514.77 679.485 1485.52 672.375 1459.51 658.154C1433.51 643.527 1412.99 623.008 1397.96 596.598C1383.33 570.188 1376.02 539.715 1376.02 505.179C1376.02 470.643 1383.53 440.169 1398.57 413.759C1414.01 387.349 1434.93 367.034 1461.34 352.813C1487.75 338.186 1517.21 330.872 1549.71 330.872C1582.22 330.872 1611.68 338.186 1638.09 352.813C1664.5 367.034 1685.22 387.349 1700.25 413.759C1715.69 440.169 1723.41 470.643 1723.41 505.179C1723.41 539.715 1715.49 570.188 1699.64 596.598C1684.2 623.008 1663.07 643.527 1636.26 658.154C1609.85 672.375 1580.19 679.485 1547.28 679.485ZM1547.28 605.131C1562.72 605.131 1577.14 601.474 1590.55 594.16C1604.36 586.44 1615.33 575.064 1623.46 560.03C1631.59 544.997 1635.65 526.713 1635.65 505.179C1635.65 473.08 1627.12 448.499 1610.05 431.434C1593.39 413.962 1572.87 405.227 1548.49 405.227C1524.12 405.227 1503.6 413.962 1486.94 431.434C1470.69 448.499 1462.56 473.08 1462.56 505.179C1462.56 537.277 1470.48 562.062 1486.33 579.533C1502.58 596.598 1522.9 605.131 1547.28 605.131ZM1770.15 503.96C1770.15 469.83 1776.86 439.56 1790.27 413.15C1804.08 386.74 1822.57 366.424 1845.73 352.204C1869.29 337.983 1895.5 330.872 1924.35 330.872C1949.54 330.872 1971.48 335.951 1990.17 346.109C2009.27 356.267 2024.5 369.065 2035.88 384.505V336.358H2121.81V674H2035.88V624.634C2024.91 640.48 2009.67 653.685 1990.17 664.249C1971.07 674.406 1948.93 679.485 1923.74 679.485C1895.3 679.485 1869.29 672.172 1845.73 657.545C1822.57 642.917 1804.08 622.399 1790.27 595.989C1776.86 569.172 1770.15 538.496 1770.15 503.96ZM2035.88 505.179C2035.88 484.457 2031.82 466.783 2023.69 452.155C2015.56 437.122 2004.59 425.745 1990.78 418.026C1976.96 409.899 1962.13 405.836 1946.29 405.836C1930.44 405.836 1915.82 409.696 1902.41 417.416C1889 425.136 1878.03 436.513 1869.5 451.546C1861.37 466.173 1857.31 483.644 1857.31 503.96C1857.31 524.275 1861.37 542.153 1869.5 557.593C1878.03 572.626 1889 584.206 1902.41 592.332C1916.22 600.458 1930.85 604.521 1946.29 604.521C1962.13 604.521 1976.96 600.661 1990.78 592.941C2004.59 584.815 2015.56 573.439 2023.69 558.812C2031.82 543.778 2035.88 525.901 2035.88 505.179ZM2296.57 222.997V674H2211.24V222.997H2296.57ZM2676.46 248.595V317.464H2563.1V674H2477.77V317.464H2364.41V248.595H2676.46ZM3058.68 497.865C3058.68 510.054 3057.87 521.025 3056.24 530.776H2809.41C2811.44 555.155 2819.98 574.251 2835.01 588.066C2850.04 601.88 2868.53 608.787 2890.47 608.787C2922.16 608.787 2944.71 595.176 2958.12 567.953H3050.15C3040.4 600.458 3021.71 627.275 2994.08 648.403C2966.45 669.124 2932.52 679.485 2892.3 679.485C2859.79 679.485 2830.54 672.375 2804.54 658.154C2778.94 643.527 2758.83 623.008 2744.2 596.598C2729.98 570.188 2722.87 539.715 2722.87 505.179C2722.87 470.236 2729.98 439.56 2744.2 413.15C2758.42 386.74 2778.33 366.424 2803.93 352.204C2829.52 337.983 2858.98 330.872 2892.3 330.872C2924.4 330.872 2953.04 337.78 2978.23 351.594C3003.83 365.409 3023.54 385.115 3037.35 410.712C3051.57 435.903 3058.68 464.954 3058.68 497.865ZM2970.31 473.487C2969.9 451.546 2961.98 434.075 2946.54 421.073C2931.1 407.665 2912.21 400.961 2889.86 400.961C2868.73 400.961 2850.86 407.462 2836.23 420.463C2822.01 433.059 2813.27 450.733 2810.02 473.487H2970.31ZM3105.12 505.179C3105.12 470.236 3112.23 439.763 3126.45 413.759C3140.67 387.349 3160.37 367.034 3185.56 352.813C3210.76 338.186 3239.6 330.872 3272.11 330.872C3313.96 330.872 3348.49 341.436 3375.72 362.564C3403.35 383.286 3421.83 412.54 3431.18 450.327H3339.15C3334.27 435.7 3325.94 424.323 3314.16 416.197C3302.78 407.665 3288.56 403.398 3271.5 403.398C3247.12 403.398 3227.82 412.337 3213.6 430.215C3199.38 447.686 3192.27 472.674 3192.27 505.179C3192.27 537.277 3199.38 562.265 3213.6 580.143C3227.82 597.614 3247.12 606.35 3271.5 606.35C3306.04 606.35 3328.59 590.91 3339.15 560.03H3431.18C3421.83 596.598 3403.35 625.649 3375.72 647.184C3348.09 668.718 3313.55 679.485 3272.11 679.485C3239.6 679.485 3210.76 672.375 3185.56 658.154C3160.37 643.527 3140.67 623.211 3126.45 597.208C3112.23 570.798 3105.12 540.121 3105.12 505.179ZM3689.93 331.482C3715.53 331.482 3738.28 337.17 3758.19 348.547C3778.1 359.517 3793.54 375.973 3804.51 397.913C3815.89 419.448 3821.58 445.451 3821.58 475.925V674H3736.25V487.504C3736.25 460.688 3729.55 440.169 3716.14 425.949C3702.73 411.321 3684.45 404.008 3661.29 404.008C3637.72 404.008 3619.03 411.321 3605.22 425.949C3591.81 440.169 3585.11 460.688 3585.11 487.504V674H3499.78V222.997H3585.11V378.41C3596.08 363.783 3610.7 352.407 3628.99 344.281C3647.27 335.748 3667.59 331.482 3689.93 331.482Z" fill="url(#paint3_linear_1029_1703)"/>
<defs>
<linearGradient id="paint0_linear_1029_1703" x1="153.624" y1="5.99235" x2="153.624" y2="716.481" gradientUnits="userSpaceOnUse">
<stop stop-color="#3696FF"/>
<stop offset="1" stop-color="#0039D5"/>
</linearGradient>
<linearGradient id="paint1_linear_1029_1703" x1="434.978" y1="466.917" x2="434.973" y2="838.79" gradientUnits="userSpaceOnUse">
<stop stop-color="#FFAF8B"/>
<stop offset="1" stop-color="#FF5E15"/>
</linearGradient>
<linearGradient id="paint2_linear_1029_1703" x1="534.642" y1="404.383" x2="534.642" y2="506.42" gradientUnits="userSpaceOnUse">
<stop stop-color="#FF9666"/>
<stop offset="1" stop-color="#FF5E15"/>
</linearGradient>
<linearGradient id="paint3_linear_1029_1703" x1="1765.48" y1="-167.791" x2="1765.48" y2="921" gradientUnits="userSpaceOnUse">
<stop stop-color="#3696FF"/>
<stop offset="1" stop-color="#0039D5"/>
</linearGradient>
</defs>
</svg>
