<?xml version="1.0" encoding="utf-8"?>
<!-- Generator: Adobe Illustrator 19.2.1, SVG Export Plug-In . SVG Version: 6.00 Build 0)  -->
<svg version="1.1" id="layer" xmlns="http://www.w3.org/2000/svg" xmlns:xlink="http://www.w3.org/1999/xlink" x="0px" y="0px"
	 viewBox="0 0 652 652" style="enable-background:new 0 0 652 652;" xml:space="preserve">
<style type="text/css">
	.st0{fill:#636466;}
	.st1{fill:#C00C3F;}
	.st2{fill:#FFFFFF;}
</style>
<g>
	<path class="st0" d="M620.8,282c-8.7-5.1-21.8-7.5-31.1-7.5c-24.6,0-36,11-36,26.7c0,13.5,10.2,21.7,21.3,26
		c5.5,2,11.6,4.1,16.2,5.4c7.4,2.1,10.3,5.6,10.3,10.7c0,6.4-4.5,10.2-16.2,10.2c-8,0-18.5-3.2-26-7.5l-7,15.6
		c9.6,5.5,22.5,8.4,33.2,8.4c23,0,36.4-11.5,36.4-27.4c0-15.1-8-20.4-17-24.3c-3.5-1.4-10-3.5-13.4-4.5
		c-11.5-3.2-17.7-6.1-17.7-13.7c0-5.6,3.7-10,16.3-10c9.1,0,18,3.1,24.1,6.6L620.8,282z M526.3,275.8v75.3H524l-26.6-75.3h-36v92.5
		h19.5v-76.5h2.5l26.3,76.5h36v-92.5H526.3z M454.9,286.7c-8-8.9-21.1-12.3-32.9-12.3c-27.3,0-43.9,16.3-43.9,47.7
		c0,30,12.8,47.7,43.7,47.7c11.5,0,23.6-2.7,31.8-7.5l-4.6-15.4c-6.6,3.3-16.5,5.5-25.8,5.5c-19.4,0-24.5-12.4-24.5-30.5
		c0-21.1,9.4-31.2,24.1-31.2c8.7,0,16,3.8,20.9,8.9L454.9,286.7z"/>
	<path class="st1" d="M92.9,393.2c39.3,0,71.1-31.8,71.1-71.1c0-39.2-31.8-71.1-71.1-71.1c-39.2,0-71.1,31.8-71.1,71.1
		C21.9,361.4,53.7,393.2,92.9,393.2"/>
</g>
<polygon class="st2" points="90.1,290.9 90.1,353.2 110,353.2 110,347.7 95.8,347.7 95.8,290.9 "/>
<g>
	<path class="st2" d="M70.3,307.9c4.7,0,8.5-3.8,8.5-8.5s-3.8-8.5-8.5-8.5c-4.7,0-8.5,3.8-8.5,8.5S65.6,307.9,70.3,307.9"/>
	<path class="st2" d="M95.8,262.7c-0.7,0-2.1-0.1-2.9-0.1c-32.8,0-59.5,26.7-59.5,59.5c0,15.9,6.2,30.8,17.4,42.1
		c11.2,11.2,26.2,17.4,42.1,17.4c15.9,0,30.8-6.2,42.1-17.4c11.2-11.2,17.4-26.2,17.4-42.1v-2.7l-2.4,0H110v5.5h36.8v0.8
		c-1.9,28-25.3,50.3-53.8,50.3c-14.4,0-27.9-5.6-38.1-15.8C44.6,350.1,39,336.5,39,322.1s5.6-27.9,15.8-38.1
		c10.2-10.2,23.7-15.8,38.1-15.8c0.6,0,2.2,0,2.9,0.1V262.7z"/>
	<path class="st0" d="M308.9,333.1h17.4v16.2c-3.2,1.2-9.5,2.4-15.4,2.4c-19.2,0-25.6-9.8-25.6-29.6c0-18.9,6.1-30.1,25.3-30.1
		c10.7,0,16.8,3.4,21.8,9.8l13.3-12.2c-8.1-11.6-22.3-15.1-35.6-15.1c-29.9,0-45.7,16.3-45.7,47.5c0,31,14.2,47.8,45.5,47.8
		c14.4,0,28.4-3.7,36-9v-44.9h-37.1V333.1z M217.6,275.8h-21.4v92.5h65.7v-18h-44.3V275.8z"/>
</g>
</svg>
