<svg width="16" height="16" viewBox="0 0 16 16" fill="none" xmlns="http://www.w3.org/2000/svg">
<path d="M9.5 6H6.5C6.36739 6 6.24021 6.05268 6.14645 6.14645C6.05268 6.24021 6 6.36739 6 6.5V9.5C6 9.63261 6.05268 9.75979 6.14645 9.85355C6.24021 9.94732 6.36739 10 6.5 10H9.5C9.63261 10 9.75979 9.94732 9.85355 9.85355C9.94732 9.75979 10 9.63261 10 9.5V6.5C10 6.36739 9.94732 6.24021 9.85355 6.14645C9.75979 6.05268 9.63261 6 9.5 6ZM9 9H7V7H9V9ZM14.5 9H13.5V7H14.5C14.6326 7 14.7598 6.94732 14.8536 6.85355C14.9473 6.75979 15 6.63261 15 6.5C15 6.36739 14.9473 6.24021 14.8536 6.14645C14.7598 6.05268 14.6326 6 14.5 6H13.5V3.5C13.5 3.23478 13.3946 2.98043 13.2071 2.79289C13.0196 2.60536 12.7652 2.5 12.5 2.5H10V1.5C10 1.36739 9.94732 1.24021 9.85355 1.14645C9.75979 1.05268 9.63261 1 9.5 1C9.36739 1 9.24021 1.05268 9.14645 1.14645C9.05268 1.24021 9 1.36739 9 1.5V2.5H7V1.5C7 1.36739 6.94732 1.24021 6.85355 1.14645C6.75979 1.05268 6.63261 1 6.5 1C6.36739 1 6.24021 1.05268 6.14645 1.14645C6.05268 1.24021 6 1.36739 6 1.5V2.5H3.5C3.23478 2.5 2.98043 2.60536 2.79289 2.79289C2.60536 2.98043 2.5 3.23478 2.5 3.5V6H1.5C1.36739 6 1.24021 6.05268 1.14645 6.14645C1.05268 6.24021 1 6.36739 1 6.5C1 6.63261 1.05268 6.75979 1.14645 6.85355C1.24021 6.94732 1.36739 7 1.5 7H2.5V9H1.5C1.36739 9 1.24021 9.05268 1.14645 9.14645C1.05268 9.24021 1 9.36739 1 9.5C1 9.63261 1.05268 9.75979 1.14645 9.85355C1.24021 9.94732 1.36739 10 1.5 10H2.5V12.5C2.5 12.7652 2.60536 13.0196 2.79289 13.2071C2.98043 13.3946 3.23478 13.5 3.5 13.5H6V14.5C6 14.6326 6.05268 14.7598 6.14645 14.8536C6.24021 14.9473 6.36739 15 6.5 15C6.63261 15 6.75979 14.9473 6.85355 14.8536C6.94732 14.7598 7 14.6326 7 14.5V13.5H9V14.5C9 14.6326 9.05268 14.7598 9.14645 14.8536C9.24021 14.9473 9.36739 15 9.5 15C9.63261 15 9.75979 14.9473 9.85355 14.8536C9.94732 14.7598 10 14.6326 10 14.5V13.5H12.5C12.7652 13.5 13.0196 13.3946 13.2071 13.2071C13.3946 13.0196 13.5 12.7652 13.5 12.5V10H14.5C14.6326 10 14.7598 9.94732 14.8536 9.85355C14.9473 9.75979 15 9.63261 15 9.5C15 9.36739 14.9473 9.24021 14.8536 9.14645C14.7598 9.05268 14.6326 9 14.5 9ZM12.5 12.5H3.5V3.5H12.5V9.49187C12.5 9.49187 12.5 9.4975 12.5 9.5C12.5 9.5025 12.5 9.50563 12.5 9.50813V12.5Z" fill="#007AFF"/>
</svg>
