<svg width="16" height="16" viewBox="0 0 16 16" fill="none" xmlns="http://www.w3.org/2000/svg">
<path d="M15.3 9.39995C15.2475 9.43935 15.1877 9.46801 15.1241 9.48431C15.0605 9.5006 14.9943 9.50421 14.9293 9.49492C14.8643 9.48564 14.8018 9.46364 14.7453 9.43019C14.6888 9.39673 14.6394 9.35248 14.6 9.29995C14.2986 8.89486 13.9064 8.56619 13.4548 8.3404C13.0032 8.1146 12.5049 7.99799 12 7.99995C11.9017 7.99994 11.8055 7.97094 11.7236 7.91658C11.6417 7.86222 11.5776 7.78491 11.5394 7.69432C11.5134 7.63281 11.5 7.56672 11.5 7.49995C11.5 7.43318 11.5134 7.36709 11.5394 7.30557C11.5776 7.21499 11.6417 7.13768 11.7236 7.08332C11.8055 7.02896 11.9017 6.99996 12 6.99995C12.2805 6.99992 12.5555 6.92122 12.7935 6.77279C13.0316 6.62435 13.2232 6.41213 13.3467 6.16023C13.4702 5.90832 13.5206 5.62683 13.4921 5.34774C13.4637 5.06864 13.3575 4.80312 13.1857 4.58134C13.0139 4.35956 12.7833 4.1904 12.5202 4.09308C12.2571 3.99577 11.9719 3.9742 11.6971 4.03081C11.4224 4.08743 11.169 4.21997 10.9658 4.41338C10.7625 4.60679 10.6176 4.85331 10.5475 5.12495C10.5311 5.18856 10.5023 5.24831 10.4628 5.3008C10.4233 5.35328 10.3738 5.39747 10.3172 5.43084C10.2607 5.46421 10.198 5.48611 10.133 5.49529C10.068 5.50446 10.0017 5.50074 9.93812 5.48432C9.87451 5.46791 9.81476 5.43913 9.76228 5.39962C9.70979 5.36011 9.6656 5.31065 9.63223 5.25407C9.59886 5.19748 9.57696 5.13488 9.56778 5.06983C9.55861 5.00478 9.56233 4.93856 9.57875 4.87495C9.6761 4.49827 9.86001 4.14951 10.1159 3.85642C10.3717 3.56333 10.6924 3.33399 11.0525 3.18667C11.4126 3.03934 11.8021 2.97809 12.19 3.00778C12.5779 3.03747 12.9536 3.15729 13.287 3.35771C13.6205 3.55812 13.9026 3.83359 14.1109 4.16221C14.3191 4.49083 14.4478 4.86352 14.4867 5.25062C14.5256 5.63773 14.4736 6.02857 14.3348 6.39204C14.1961 6.75552 13.9744 7.08159 13.6875 7.34432C14.3674 7.6387 14.9584 8.10583 15.4019 8.69932C15.4413 8.75199 15.4699 8.8119 15.4861 8.87564C15.5023 8.93938 15.5058 9.00569 15.4963 9.07077C15.4868 9.13586 15.4646 9.19843 15.4309 9.25492C15.3973 9.3114 15.3528 9.36069 15.3 9.39995ZM11.9325 13.2499C11.9687 13.3069 11.993 13.3705 12.0039 13.437C12.0149 13.5036 12.0122 13.5716 11.9962 13.6371C11.9801 13.7026 11.951 13.7642 11.9106 13.8182C11.8701 13.8721 11.8191 13.9173 11.7608 13.9511C11.7024 13.9848 11.6378 14.0064 11.5708 14.0145C11.5039 14.0227 11.436 14.0172 11.3712 13.9984C11.3065 13.9796 11.2462 13.9479 11.194 13.9052C11.1418 13.8625 11.0988 13.8097 11.0675 13.7499C10.7525 13.2166 10.3039 12.7746 9.76601 12.4676C9.22808 12.1605 8.61939 11.999 8 11.999C7.38061 11.999 6.77191 12.1605 6.23398 12.4676C5.69605 12.7746 5.24747 13.2166 4.9325 13.7499C4.90124 13.8097 4.85822 13.8625 4.80602 13.9052C4.75383 13.9479 4.69353 13.9796 4.62877 13.9984C4.564 14.0172 4.49611 14.0227 4.42916 14.0145C4.36222 14.0064 4.29762 13.9848 4.23923 13.9511C4.18085 13.9173 4.1299 13.8721 4.08944 13.8182C4.04898 13.7642 4.01986 13.7026 4.00381 13.6371C3.98777 13.5716 3.98514 13.5036 3.99609 13.437C4.00703 13.3705 4.03132 13.3069 4.0675 13.2499C4.55225 12.4171 5.29137 11.7616 6.17625 11.3799C5.67833 10.9987 5.31239 10.471 5.12987 9.87109C4.94736 9.27114 4.95744 8.62907 5.1587 8.03514C5.35995 7.44121 5.74228 6.92528 6.25192 6.55987C6.76156 6.19446 7.3729 5.99795 8 5.99795C8.6271 5.99795 9.23844 6.19446 9.74808 6.55987C10.2577 6.92528 10.64 7.44121 10.8413 8.03514C11.0426 8.62907 11.0526 9.27114 10.8701 9.87109C10.6876 10.471 10.3217 10.9987 9.82375 11.3799C10.7086 11.7616 11.4477 12.4171 11.9325 13.2499ZM8 10.9999C8.39556 10.9999 8.78224 10.8827 9.11114 10.6629C9.44004 10.4431 9.69638 10.1308 9.84776 9.76532C9.99913 9.39986 10.0387 8.99773 9.96157 8.60977C9.8844 8.22181 9.69392 7.86544 9.41421 7.58574C9.13451 7.30603 8.77814 7.11555 8.39018 7.03838C8.00222 6.96121 7.60008 7.00081 7.23463 7.15219C6.86918 7.30357 6.55682 7.55991 6.33706 7.88881C6.1173 8.21771 6 8.60439 6 8.99995C6 9.53038 6.21071 10.0391 6.58579 10.4142C6.96086 10.7892 7.46957 10.9999 8 10.9999ZM4.5 7.49995C4.5 7.36734 4.44732 7.24016 4.35355 7.1464C4.25978 7.05263 4.13261 6.99995 4 6.99995C3.71945 6.99992 3.44454 6.92122 3.20648 6.77279C2.96842 6.62435 2.77676 6.41213 2.65327 6.16023C2.52978 5.90832 2.4794 5.62683 2.50787 5.34774C2.53634 5.06864 2.64251 4.80312 2.81432 4.58134C2.98612 4.35956 3.21668 4.1904 3.47981 4.09308C3.74294 3.99577 4.02808 3.9742 4.30285 4.03081C4.57762 4.08743 4.83101 4.21997 5.03423 4.41338C5.23745 4.60679 5.38236 4.85331 5.4525 5.12495C5.48565 5.25341 5.56848 5.36345 5.68276 5.43084C5.79704 5.49824 5.93341 5.51748 6.06187 5.48432C6.19034 5.45117 6.30037 5.36835 6.36777 5.25407C6.43516 5.13979 6.4544 5.00341 6.42125 4.87495C6.3239 4.49827 6.13998 4.14951 5.88413 3.85642C5.62828 3.56333 5.30755 3.33399 4.94747 3.18667C4.58739 3.03934 4.19789 2.97809 3.80997 3.00778C3.42205 3.03747 3.04642 3.15729 2.71295 3.35771C2.37949 3.55812 2.0974 3.83359 1.88914 4.16221C1.68087 4.49083 1.55218 4.86352 1.51329 5.25062C1.47441 5.63773 1.52641 6.02857 1.66515 6.39204C1.8039 6.75552 2.02556 7.08159 2.3125 7.34432C1.6333 7.63898 1.04295 8.10609 0.599999 8.69932C0.520351 8.80541 0.486108 8.93879 0.504803 9.07013C0.523498 9.20146 0.5936 9.31999 0.699686 9.39964C0.805773 9.47929 0.939155 9.51353 1.07049 9.49483C1.20182 9.47614 1.32035 9.40604 1.4 9.29995C1.70137 8.89486 2.09363 8.56619 2.54522 8.3404C2.99681 8.1146 3.49511 7.99799 4 7.99995C4.13261 7.99995 4.25978 7.94727 4.35355 7.8535C4.44732 7.75973 4.5 7.63256 4.5 7.49995Z" fill="#007AFF"/>
</svg>
