<svg width="13" height="14" viewBox="0 0 13 14" fill="none" xmlns="http://www.w3.org/2000/svg">
<path d="M10.5316 9.71688C11.1639 9.18576 11.669 8.51958 12.0097 7.7674C12.3505 7.01522 12.5181 6.19619 12.5004 5.37063C12.4379 2.51375 10.1498 0.158129 7.29788 0.00812937C6.56205 -0.0319216 5.82568 0.0763067 5.13249 0.326386C4.4393 0.576466 3.80344 0.963297 3.26266 1.46391C2.72188 1.96452 2.28722 2.56869 1.98449 3.24056C1.68176 3.91242 1.51713 4.63828 1.50038 5.375L0.0972575 8.07375C0.0916325 8.085 0.0860076 8.09625 0.0810076 8.1075C-0.0195863 8.34197 -0.0267558 8.60602 0.0609668 8.84561C0.148689 9.08519 0.324669 9.28218 0.552883 9.39625L0.568508 9.40313L2.00038 10.0588V12C2.00038 12.2652 2.10574 12.5196 2.29328 12.7071C2.48081 12.8946 2.73517 13 3.00038 13H6.00038C6.13299 13 6.26017 12.9473 6.35394 12.8536C6.4477 12.7598 6.50038 12.6326 6.50038 12.5C6.50038 12.3674 6.4477 12.2402 6.35394 12.1465C6.26017 12.0527 6.13299 12 6.00038 12H3.00038V9.73813C3.00045 9.64229 2.97298 9.54845 2.92123 9.46778C2.86949 9.38712 2.79565 9.32302 2.70851 9.28313L1.00038 8.5L2.44226 5.72875C2.47984 5.65832 2.49978 5.57983 2.50038 5.5C2.50024 4.48022 2.84648 3.49062 3.48237 2.69337C4.11826 1.89612 5.00609 1.3385 6.00038 1.11188V2.08625C5.66678 2.2042 5.38561 2.43629 5.20657 2.74149C5.02753 3.0467 4.96215 3.40537 5.02198 3.75412C5.08182 4.10287 5.26302 4.41924 5.53355 4.64731C5.80409 4.87538 6.14654 5.00047 6.50038 5.00047C6.85423 5.00047 7.19668 4.87538 7.46721 4.64731C7.73775 4.41924 7.91894 4.10287 7.97878 3.75412C8.03862 3.40537 7.97324 3.0467 7.7942 2.74149C7.61516 2.43629 7.33399 2.2042 7.00038 2.08625V1C7.08163 1 7.16288 1 7.24413 1.00625C8.13081 1.05704 8.98282 1.36814 9.69362 1.90062C10.4044 2.43311 10.9424 3.16335 11.2404 4H10.0004C9.92703 3.99998 9.85457 4.01609 9.78815 4.0472C9.72172 4.0783 9.66295 4.12364 9.61601 4.18L8.02163 6.09375C7.68911 5.96985 7.32349 5.96753 6.98942 6.08721C6.65536 6.20689 6.37438 6.44085 6.19618 6.74772C6.01798 7.05459 5.95405 7.41458 6.01568 7.76404C6.07732 8.11351 6.26055 8.42991 6.53298 8.6573C6.8054 8.88469 7.14946 9.00842 7.50431 9.00659C7.85916 9.00476 8.20193 8.87751 8.472 8.64733C8.74208 8.41715 8.92204 8.09887 8.98008 7.74879C9.03812 7.39872 8.97048 7.0394 8.78913 6.73438L10.2348 5H11.4716C11.4866 5.13 11.4958 5.26125 11.4991 5.39375C11.5147 6.1099 11.3597 6.81949 11.047 7.46392C10.7342 8.10836 10.2726 8.66915 9.70038 9.1C9.62987 9.15287 9.57458 9.22343 9.54011 9.30454C9.50565 9.38565 9.49324 9.47443 9.50413 9.56188L10.0041 13.5619C10.0193 13.6826 10.0781 13.7937 10.1693 13.8742C10.2606 13.9548 10.3781 13.9993 10.4998 13.9994C10.5206 13.9994 10.5415 13.9981 10.5623 13.9956C10.6274 13.9875 10.6904 13.9666 10.7475 13.9342C10.8046 13.9018 10.8547 13.8584 10.8951 13.8066C10.9354 13.7547 10.9651 13.6955 10.9826 13.6321C11 13.5688 11.0048 13.5027 10.9966 13.4375L10.5316 9.71688ZM6.50038 4C6.40149 4 6.30482 3.97068 6.2226 3.91574C6.14037 3.8608 6.07629 3.78271 6.03844 3.69135C6.0006 3.59998 5.9907 3.49945 6.00999 3.40246C6.02928 3.30547 6.0769 3.21638 6.14683 3.14645C6.21676 3.07652 6.30585 3.0289 6.40284 3.00961C6.49983 2.99032 6.60036 3.00022 6.69172 3.03806C6.78309 3.07591 6.86118 3.13999 6.91612 3.22222C6.97106 3.30444 7.00038 3.40111 7.00038 3.5C7.00038 3.63261 6.9477 3.75979 6.85394 3.85356C6.76017 3.94733 6.63299 4 6.50038 4ZM7.50038 8C7.40149 8 7.30482 7.97068 7.2226 7.91574C7.14037 7.8608 7.07629 7.78271 7.03844 7.69135C7.0006 7.59998 6.9907 7.49945 7.00999 7.40246C7.02928 7.30547 7.0769 7.21638 7.14683 7.14645C7.21675 7.07652 7.30585 7.0289 7.40284 7.00961C7.49983 6.99032 7.60036 7.00022 7.69172 7.03806C7.78309 7.07591 7.86118 7.13999 7.91612 7.22222C7.97106 7.30444 8.00038 7.40111 8.00038 7.5C8.00038 7.63261 7.9477 7.75979 7.85394 7.85356C7.76017 7.94733 7.63299 8 7.50038 8Z" fill="#007AFF"/>
</svg>
